<mxfile host="app.diagrams.net" modified="2024-06-03T13:52:15.584Z" agent="Mozilla/5.0 (Windows NT 10.0; Win64; x64) AppleWebKit/537.36 (KHTML, like Gecko) Chrome/125.0.0.0 Safari/537.36" etag="XvMSpDffSrkdoVF_3gHz" version="24.4.13" type="device">
  <diagram name="Trang-1" id="-0Wi1eNnvNYlA5sS_hvU">
    <mxGraphModel dx="1434" dy="756" grid="1" gridSize="10" guides="1" tooltips="1" connect="1" arrows="1" fold="1" page="1" pageScale="1" pageWidth="827" pageHeight="1169" math="0" shadow="0">
      <root>
        <mxCell id="0" />
        <mxCell id="1" parent="0" />
        <mxCell id="VkO1-VQNevSuLcNgFLQA-1" value="1" style="edgeStyle=orthogonalEdgeStyle;rounded=0;orthogonalLoop=1;jettySize=auto;html=1;exitX=0.5;exitY=1;exitDx=0;exitDy=0;entryX=0.5;entryY=0;entryDx=0;entryDy=0;" edge="1" parent="1">
          <mxGeometry y="10" relative="1" as="geometry">
            <mxPoint x="324" y="231" as="sourcePoint" />
            <mxPoint x="324" y="311" as="targetPoint" />
            <mxPoint as="offset" />
          </mxGeometry>
        </mxCell>
        <mxCell id="VkO1-VQNevSuLcNgFLQA-2" value="&lt;span style=&quot;color: rgb(34, 34, 34); font-family: &amp;quot;Roboto Flex&amp;quot;; font-size: 16px; text-align: left; background-color: rgb(255, 255, 255);&quot;&gt;Course&lt;/span&gt;" style="rounded=0;whiteSpace=wrap;html=1;" vertex="1" parent="1">
          <mxGeometry x="264" y="170" width="120" height="60" as="geometry" />
        </mxCell>
        <mxCell id="VkO1-VQNevSuLcNgFLQA-3" value="&lt;span style=&quot;color: rgb(34, 34, 34); font-family: &amp;quot;Roboto Flex&amp;quot;; font-size: 16px; text-align: left; background-color: rgb(255, 255, 255);&quot;&gt;&amp;nbsp;Subject&lt;/span&gt;" style="rounded=0;whiteSpace=wrap;html=1;" vertex="1" parent="1">
          <mxGeometry x="264" y="470" width="120" height="60" as="geometry" />
        </mxCell>
        <mxCell id="VkO1-VQNevSuLcNgFLQA-4" value="CÃ³" style="rhombus;whiteSpace=wrap;html=1;" vertex="1" parent="1">
          <mxGeometry x="284" y="310" width="80" height="80" as="geometry" />
        </mxCell>
        <mxCell id="VkO1-VQNevSuLcNgFLQA-5" style="edgeStyle=orthogonalEdgeStyle;rounded=0;orthogonalLoop=1;jettySize=auto;html=1;exitX=0.5;exitY=1;exitDx=0;exitDy=0;entryX=0.5;entryY=0;entryDx=0;entryDy=0;" edge="1" parent="1">
          <mxGeometry relative="1" as="geometry">
            <mxPoint x="323.5" y="390" as="sourcePoint" />
            <mxPoint x="323.5" y="470" as="targetPoint" />
          </mxGeometry>
        </mxCell>
        <mxCell id="VkO1-VQNevSuLcNgFLQA-6" value="N" style="edgeLabel;html=1;align=center;verticalAlign=middle;resizable=0;points=[];" vertex="1" connectable="0" parent="VkO1-VQNevSuLcNgFLQA-5">
          <mxGeometry x="-0.1" y="4" relative="1" as="geometry">
            <mxPoint x="7" as="offset" />
          </mxGeometry>
        </mxCell>
        <mxCell id="VkO1-VQNevSuLcNgFLQA-7" value="&lt;u&gt;courseId&lt;/u&gt;" style="ellipse;whiteSpace=wrap;html=1;" vertex="1" parent="1">
          <mxGeometry x="10" y="50" width="120" height="80" as="geometry" />
        </mxCell>
        <mxCell id="VkO1-VQNevSuLcNgFLQA-8" value="name" style="ellipse;whiteSpace=wrap;html=1;" vertex="1" parent="1">
          <mxGeometry x="170" y="50" width="120" height="80" as="geometry" />
        </mxCell>
        <mxCell id="VkO1-VQNevSuLcNgFLQA-9" value="status" style="ellipse;whiteSpace=wrap;html=1;" vertex="1" parent="1">
          <mxGeometry x="530" y="50" width="120" height="80" as="geometry" />
        </mxCell>
        <mxCell id="VkO1-VQNevSuLcNgFLQA-10" value="" style="endArrow=none;html=1;rounded=0;exitX=0.45;exitY=1.013;exitDx=0;exitDy=0;exitPerimeter=0;entryX=0.5;entryY=1;entryDx=0;entryDy=0;" edge="1" parent="1" source="VkO1-VQNevSuLcNgFLQA-8" target="VkO1-VQNevSuLcNgFLQA-26">
          <mxGeometry width="50" height="50" relative="1" as="geometry">
            <mxPoint x="424" y="210" as="sourcePoint" />
            <mxPoint x="544" y="130" as="targetPoint" />
            <Array as="points">
              <mxPoint x="330" y="170" />
              <mxPoint x="380" y="150" />
            </Array>
          </mxGeometry>
        </mxCell>
        <mxCell id="VkO1-VQNevSuLcNgFLQA-11" value="" style="endArrow=none;html=1;rounded=0;exitX=0.25;exitY=0;exitDx=0;exitDy=0;entryX=0.575;entryY=1.013;entryDx=0;entryDy=0;entryPerimeter=0;" edge="1" parent="1" source="VkO1-VQNevSuLcNgFLQA-2" target="VkO1-VQNevSuLcNgFLQA-7">
          <mxGeometry width="50" height="50" relative="1" as="geometry">
            <mxPoint x="334" y="170" as="sourcePoint" />
            <mxPoint x="154" y="130" as="targetPoint" />
          </mxGeometry>
        </mxCell>
        <mxCell id="VkO1-VQNevSuLcNgFLQA-12" value="&lt;u&gt;subjectId&lt;/u&gt;" style="ellipse;whiteSpace=wrap;html=1;" vertex="1" parent="1">
          <mxGeometry x="74" y="620" width="120" height="80" as="geometry" />
        </mxCell>
        <mxCell id="VkO1-VQNevSuLcNgFLQA-13" value="name" style="ellipse;whiteSpace=wrap;html=1;" vertex="1" parent="1">
          <mxGeometry x="214" y="620" width="120" height="80" as="geometry" />
        </mxCell>
        <mxCell id="VkO1-VQNevSuLcNgFLQA-14" value="teacher" style="ellipse;whiteSpace=wrap;html=1;" vertex="1" parent="1">
          <mxGeometry x="364" y="620" width="120" height="80" as="geometry" />
        </mxCell>
        <mxCell id="VkO1-VQNevSuLcNgFLQA-17" value="status" style="ellipse;whiteSpace=wrap;html=1;" vertex="1" parent="1">
          <mxGeometry x="550" y="620" width="120" height="80" as="geometry" />
        </mxCell>
        <mxCell id="VkO1-VQNevSuLcNgFLQA-20" value="" style="endArrow=none;html=1;rounded=0;entryX=0.5;entryY=0;entryDx=0;entryDy=0;exitX=0;exitY=1;exitDx=0;exitDy=0;" edge="1" parent="1" source="VkO1-VQNevSuLcNgFLQA-3" target="VkO1-VQNevSuLcNgFLQA-12">
          <mxGeometry width="50" height="50" relative="1" as="geometry">
            <mxPoint x="204.04" y="598" as="sourcePoint" />
            <mxPoint x="133.04" y="590" as="targetPoint" />
          </mxGeometry>
        </mxCell>
        <mxCell id="VkO1-VQNevSuLcNgFLQA-21" value="" style="endArrow=none;html=1;rounded=0;entryX=0.5;entryY=0;entryDx=0;entryDy=0;exitX=0.5;exitY=1;exitDx=0;exitDy=0;" edge="1" parent="1" source="VkO1-VQNevSuLcNgFLQA-3" target="VkO1-VQNevSuLcNgFLQA-13">
          <mxGeometry width="50" height="50" relative="1" as="geometry">
            <mxPoint x="339" y="550" as="sourcePoint" />
            <mxPoint x="209" y="640" as="targetPoint" />
          </mxGeometry>
        </mxCell>
        <mxCell id="VkO1-VQNevSuLcNgFLQA-22" value="" style="endArrow=none;html=1;rounded=0;entryX=0.5;entryY=0;entryDx=0;entryDy=0;" edge="1" parent="1" target="VkO1-VQNevSuLcNgFLQA-14">
          <mxGeometry width="50" height="50" relative="1" as="geometry">
            <mxPoint x="344" y="530" as="sourcePoint" />
            <mxPoint x="354" y="650" as="targetPoint" />
          </mxGeometry>
        </mxCell>
        <mxCell id="VkO1-VQNevSuLcNgFLQA-25" value="" style="endArrow=none;html=1;rounded=0;entryX=1;entryY=1;entryDx=0;entryDy=0;exitX=0;exitY=0.5;exitDx=0;exitDy=0;" edge="1" parent="1" source="VkO1-VQNevSuLcNgFLQA-17" target="VkO1-VQNevSuLcNgFLQA-3">
          <mxGeometry width="50" height="50" relative="1" as="geometry">
            <mxPoint x="514" y="450" as="sourcePoint" />
            <mxPoint x="384" y="540" as="targetPoint" />
          </mxGeometry>
        </mxCell>
        <mxCell id="VkO1-VQNevSuLcNgFLQA-26" value="time" style="ellipse;whiteSpace=wrap;html=1;" vertex="1" parent="1">
          <mxGeometry x="354" y="50" width="120" height="80" as="geometry" />
        </mxCell>
        <mxCell id="VkO1-VQNevSuLcNgFLQA-28" value="" style="endArrow=none;html=1;rounded=0;exitX=0.433;exitY=1.025;exitDx=0;exitDy=0;entryX=1;entryY=0;entryDx=0;entryDy=0;exitPerimeter=0;" edge="1" parent="1" source="VkO1-VQNevSuLcNgFLQA-9" target="VkO1-VQNevSuLcNgFLQA-2">
          <mxGeometry width="50" height="50" relative="1" as="geometry">
            <mxPoint x="629" y="178.96" as="sourcePoint" />
            <mxPoint x="414" y="139.96" as="targetPoint" />
          </mxGeometry>
        </mxCell>
      </root>
    </mxGraphModel>
  </diagram>
</mxfile>
